<svg width="16" height="16" viewBox="0 0 16 16" fill="none" xmlns="http://www.w3.org/2000/svg">
<path d="M4.00004 1.33337V6.66671L5.33337 9.33337L6.66671 6.66671V3.33337H13.3334V9.33337H5.33337L6.64587 10.75L6.43754 10.8959L4.66671 12.125V10.6667H2.66671V3.33337H3.33337V2.00004H2.66671C1.92973 2.00004 1.33337 2.59639 1.33337 3.33337V10.6667C1.33337 11.4037 1.92973 12 2.66671 12H3.33337V14.6667L7.20837 12H13.3334C14.0704 12 14.6667 11.4037 14.6667 10.6667V3.33337C14.6667 2.59639 14.0704 2.00004 13.3334 2.00004H6.66671V1.33337H4.00004ZM5.33337 6.00004L6.22921 6.45837L5.81254 7.33337H4.85421L4.43754 6.43754L5.33337 6.00004Z" fill="black"/>
</svg>
