<svg width="16" height="16" viewBox="0 0 16 16" fill="none" xmlns="http://www.w3.org/2000/svg">
<path d="M8 0C3.58125 0 0 3.58125 0 8C0 12.4188 3.58125 16 8 16C12.4188 16 16 12.4188 16 8C16 3.58125 12.4188 0 8 0ZM8 1.6C11.5281 1.6 14.4 4.47188 14.4 8C14.4 8.375 14.3625 8.74375 14.3 9.1C14.1031 9.05625 13.8125 9.00312 13.475 9C13.225 8.99688 12.9125 9.0375 12.65 9.075C12.7406 8.79688 12.8 8.49062 12.8 8.175C12.8 7.40625 12.425 6.69062 11.825 6.1C11.9906 5.48438 12.1531 4.42812 11.725 4C10.4594 4 9.75938 4.90312 9.725 4.95C9.33438 4.85625 8.93125 4.8 8.5 4.8C7.94688 4.8 7.41875 4.9 6.925 5.05L7.075 4.925C7.075 4.925 6.37188 3.95 5.075 3.95C4.62188 4.40625 4.82812 5.5625 5 6.15C4.3875 6.73438 4 7.425 4 8.175C4 8.4375 4.0625 8.6875 4.125 8.925C3.90312 8.9 3.10312 8.825 2.775 8.825C2.48438 8.825 2.03438 8.89375 1.675 8.975C1.625 8.65625 1.6 8.33125 1.6 8C1.6 4.47188 4.47188 1.6 8 1.6ZM2.775 9.025C3.09062 9.025 4.05 9.1375 4.175 9.15C4.19062 9.19375 4.20625 9.23438 4.225 9.275C3.88125 9.24375 3.21562 9.19688 2.775 9.25C2.48125 9.28438 2.10625 9.39062 1.775 9.475C1.75 9.375 1.71875 9.27812 1.7 9.175C2.05 9.1 2.50938 9.025 2.775 9.025ZM13.475 9.2C13.7938 9.20312 14.0844 9.25625 14.275 9.3C14.2656 9.35312 14.2375 9.39688 14.225 9.45C14.0219 9.40312 13.6875 9.33438 13.3 9.325C13.1125 9.32188 12.8125 9.33125 12.55 9.35C12.5625 9.325 12.5656 9.3 12.575 9.275C12.8469 9.2375 13.1938 9.19688 13.475 9.2ZM3.275 9.425C3.725 9.42812 4.14688 9.45938 4.325 9.475C4.74375 10.2563 5.59062 10.8344 6.9 11.075C6.57812 11.2531 6.29062 11.5031 6.075 11.8C5.8875 11.8156 5.69062 11.825 5.5 11.825C4.94375 11.825 4.59688 11.3281 4.3 10.9C4 10.4719 3.63125 10.425 3.425 10.4C3.21562 10.375 3.14375 10.4938 3.25 10.575C3.85938 11.0438 4.07812 11.6 4.325 12.1C4.54688 12.55 5.0125 12.8 5.525 12.8H5.625C5.60938 12.8875 5.6 12.9688 5.6 13.05V13.925C3.75312 13.1781 2.34688 11.6 1.825 9.65C2.15312 9.56875 2.52188 9.48438 2.8 9.45C2.92812 9.43438 3.09062 9.42188 3.275 9.425ZM13.3 9.525C13.6594 9.53438 13.9781 9.60312 14.175 9.65C13.7344 11.3063 12.6469 12.6844 11.2 13.525V13.05C11.2 12.3688 10.6625 11.4938 9.9 11.075C11.1656 10.8438 11.9906 10.2906 12.425 9.55C12.7281 9.52812 13.0844 9.51875 13.3 9.525ZM8.4 12.8C8.61875 12.8 8.8 12.9813 8.8 13.2V14.35C8.5375 14.3844 8.27188 14.4 8 14.4V13.2C8 12.9813 8.18125 12.8 8.4 12.8ZM6.8 13.6C7.01875 13.6 7.2 13.7813 7.2 14V14.35C6.93125 14.3156 6.65938 14.2656 6.4 14.2V14C6.4 13.7813 6.58125 13.6 6.8 13.6ZM10 13.6C10.1938 13.6 10.3625 13.7406 10.4 13.925C10.1406 14.0313 9.875 14.1281 9.6 14.2V14C9.6 13.7813 9.78125 13.6 10 13.6Z" fill="black"/>
</svg>
