<svg width="24" height="24" viewBox="0 0 24 24" fill="none" xmlns="http://www.w3.org/2000/svg">
<path d="M12 0C5.37188 0 0 5.37188 0 12C0 18.6281 5.37188 24 12 24C18.6281 24 24 18.6281 24 12C24 5.37188 18.6281 0 12 0ZM12 2.4C17.2922 2.4 21.6 6.70781 21.6 12C21.6 12.5625 21.5438 13.1156 21.45 13.65C21.1547 13.5844 20.7188 13.5047 20.2125 13.5C19.8375 13.4953 19.3688 13.5563 18.975 13.6125C19.1109 13.1953 19.2 12.7359 19.2 12.2625C19.2 11.1094 18.6375 10.0359 17.7375 9.15C17.9859 8.22656 18.2297 6.64219 17.5875 6C15.6891 6 14.6391 7.35469 14.5875 7.425C14.0016 7.28438 13.3969 7.2 12.75 7.2C11.9203 7.2 11.1281 7.35 10.3875 7.575L10.6125 7.3875C10.6125 7.3875 9.55781 5.925 7.6125 5.925C6.93281 6.60938 7.24219 8.34375 7.5 9.225C6.58125 10.1016 6 11.1375 6 12.2625C6 12.6563 6.09375 13.0313 6.1875 13.3875C5.85469 13.35 4.65469 13.2375 4.1625 13.2375C3.72656 13.2375 3.05156 13.3406 2.5125 13.4625C2.4375 12.9844 2.4 12.4969 2.4 12C2.4 6.70781 6.70781 2.4 12 2.4ZM4.1625 13.5375C4.63594 13.5375 6.075 13.7063 6.2625 13.725C6.28594 13.7906 6.30938 13.8516 6.3375 13.9125C5.82188 13.8656 4.82344 13.7953 4.1625 13.875C3.72188 13.9266 3.15938 14.0859 2.6625 14.2125C2.625 14.0625 2.57813 13.9172 2.55 13.7625C3.075 13.65 3.76406 13.5375 4.1625 13.5375ZM20.2125 13.8C20.6906 13.8047 21.1266 13.8844 21.4125 13.95C21.3984 14.0297 21.3563 14.0953 21.3375 14.175C21.0328 14.1047 20.5313 14.0016 19.95 13.9875C19.6688 13.9828 19.2188 13.9969 18.825 14.025C18.8438 13.9875 18.8484 13.95 18.8625 13.9125C19.2703 13.8563 19.7906 13.7953 20.2125 13.8ZM4.9125 14.1375C5.5875 14.1422 6.22031 14.1891 6.4875 14.2125C7.11563 15.3844 8.38594 16.2516 10.35 16.6125C9.86719 16.8797 9.43594 17.2547 9.1125 17.7C8.83125 17.7234 8.53594 17.7375 8.25 17.7375C7.41563 17.7375 6.89531 16.9922 6.45 16.35C6 15.7078 5.44688 15.6375 5.1375 15.6C4.82344 15.5625 4.71563 15.7406 4.875 15.8625C5.78906 16.5656 6.11719 17.4 6.4875 18.15C6.82031 18.825 7.51875 19.2 8.2875 19.2H8.4375C8.41406 19.3313 8.4 19.4531 8.4 19.575V20.8875C5.62969 19.7672 3.52031 17.4 2.7375 14.475C3.22969 14.3531 3.78281 14.2266 4.2 14.175C4.39219 14.1516 4.63594 14.1328 4.9125 14.1375ZM19.95 14.2875C20.4891 14.3016 20.9672 14.4047 21.2625 14.475C20.6016 16.9594 18.9703 19.0266 16.8 20.2875V19.575C16.8 18.5531 15.9938 17.2406 14.85 16.6125C16.7484 16.2656 17.9859 15.4359 18.6375 14.325C19.0922 14.2922 19.6266 14.2781 19.95 14.2875ZM12.6 19.2C12.9281 19.2 13.2 19.4719 13.2 19.8V21.525C12.8063 21.5766 12.4078 21.6 12 21.6V19.8C12 19.4719 12.2719 19.2 12.6 19.2ZM10.2 20.4C10.5281 20.4 10.8 20.6719 10.8 21V21.525C10.3969 21.4734 9.98906 21.3984 9.6 21.3V21C9.6 20.6719 9.87188 20.4 10.2 20.4ZM15 20.4C15.2906 20.4 15.5438 20.6109 15.6 20.8875C15.2109 21.0469 14.8125 21.1922 14.4 21.3V21C14.4 20.6719 14.6719 20.4 15 20.4Z" fill="white"/>
</svg>
